<svg width="38" height="38" viewBox="0 0 38 38" fill="none" xmlns="http://www.w3.org/2000/svg">
<circle cx="19" cy="19" r="19" fill="white"/>
<path d="M25.8774 11.47C24.8974 10.9333 23.894 10.49 22.8674 10.14C21.864 9.79 20.919 9.615 20.0324 9.615C18.9357 9.615 18.0724 9.83667 17.4424 10.28C16.8124 10.7233 16.4974 11.3883 16.4974 12.275C16.4974 12.8817 16.7307 13.43 17.1974 13.92C17.6874 14.3867 18.3057 14.8067 19.0524 15.18C19.8224 15.5533 20.6157 15.8917 21.4324 16.195C22.179 16.475 22.914 16.8133 23.6374 17.21C24.384 17.5833 25.049 18.0617 25.6324 18.645C26.2157 19.205 26.6824 19.9167 27.0324 20.78C27.3824 21.62 27.5574 22.6583 27.5574 23.895C27.5574 25.2017 27.219 26.415 26.5424 27.535C25.8657 28.655 24.874 29.565 23.5674 30.265C22.2607 30.9417 20.6507 31.28 18.7374 31.28C17.7574 31.28 16.754 31.1867 15.7274 31C14.724 30.79 13.7324 30.4867 12.7524 30.09C11.7724 29.67 10.8274 29.145 9.91736 28.515L12.1574 24.56C12.764 25.0033 13.4174 25.4 14.1174 25.75C14.8407 26.0767 15.564 26.3333 16.2874 26.52C17.0107 26.7067 17.6757 26.8 18.2824 26.8C18.889 26.8 19.4957 26.7183 20.1024 26.555C20.7324 26.3683 21.2457 26.065 21.6424 25.645C22.0624 25.225 22.2724 24.6417 22.2724 23.895C22.2724 23.3817 22.0974 22.915 21.7474 22.495C21.4207 22.075 20.9657 21.69 20.3824 21.34C19.8224 20.99 19.204 20.6867 18.5274 20.43C17.734 20.1267 16.9174 19.7767 16.0774 19.38C15.2374 18.9833 14.444 18.505 13.6974 17.945C12.974 17.3617 12.379 16.65 11.9124 15.81C11.469 14.9467 11.2474 13.8967 11.2474 12.66C11.2474 11.1667 11.574 9.87167 12.2274 8.775C12.904 7.67833 13.849 6.815 15.0624 6.185C16.2757 5.53166 17.6757 5.17 19.2624 5.1C21.339 5.1 23.019 5.345 24.3024 5.835C25.609 6.325 26.7757 6.90833 27.8024 7.585L25.8774 11.47Z" fill="#060606"/>
</svg>
